<svg xmlns="http://www.w3.org/2000/svg" version="1.1" xmlns:xlink="http://www.w3.org/1999/xlink" xmlns:svgjs="http://svgjs.dev/svgjs" viewBox="0 0 8.890566294002616 2.048083738557036"><g transform="matrix(1,0,0,1,1.8374788372125126,0.3618541919231828)"><g><path d=" M 0.909 0 Q 0.9450000000000001 0 0.9675 0.02400000000000002 Q 0.99 0.04800000000000004 0.99 0.08400000000000007 L 0.99 0.9585 Q 0.99 0.9975 0.96375 1.02375 Q 0.9375 1.05 0.8985 1.05 Q 0.879 1.05 0.85875 1.04325 Q 0.8385 1.0365 0.8280000000000001 1.0245 L 0.23850000000000002 0.276 L 0.2775 0.252 L 0.2775 0.9660000000000001 Q 0.2775 1.002 0.25425000000000003 1.026 Q 0.231 1.05 0.1935 1.05 Q 0.1575 1.05 0.135 1.026 Q 0.1125 1.002 0.1125 0.9660000000000001 L 0.1125 0.09150000000000003 Q 0.1125 0.05249999999999999 0.13875 0.026250000000000107 Q 0.165 0 0.20400000000000001 0 Q 0.225 0 0.2475 0.00825000000000009 Q 0.27 0.01649999999999996 0.2805 0.03299999999999992 L 0.852 0.762 L 0.8265 0.78 L 0.8265 0.08400000000000007 Q 0.8265 0.04800000000000004 0.849 0.02400000000000002 Q 0.8715 0 0.909 0 M 1.8494780273437503 0.23250000000000004 Q 1.8884780273437503 0.23250000000000004 1.91397802734375 0.258 Q 1.9394780273437502 0.2835 1.9394780273437502 0.32400000000000007 L 1.9394780273437502 0.9585 Q 1.9394780273437502 0.9975 1.91397802734375 1.02375 Q 1.8884780273437503 1.05 1.8494780273437503 1.05 Q 1.8104780273437502 1.05 1.78497802734375 1.02375 Q 1.7594780273437503 0.9975 1.7594780273437503 0.9585 L 1.7594780273437503 0.885 L 1.7924780273437504 0.8985000000000001 Q 1.7924780273437504 0.918 1.7714780273437503 0.9457500000000001 Q 1.7504780273437501 0.9735 1.71447802734375 1.0005 Q 1.6784780273437503 1.0275 1.6297280273437502 1.0462500000000001 Q 1.5809780273437504 1.065 1.5239780273437502 1.065 Q 1.4204780273437503 1.065 1.3364780273437502 1.0117500000000001 Q 1.2524780273437501 0.9585 1.2037280273437503 0.86475 Q 1.1549780273437502 0.771 1.1549780273437502 0.6495 Q 1.1549780273437502 0.5265000000000001 1.2037280273437503 0.4327500000000001 Q 1.2524780273437501 0.3390000000000001 1.3349780273437502 0.28575000000000006 Q 1.4174780273437502 0.23250000000000004 1.5179780273437502 0.23250000000000004 Q 1.5824780273437502 0.23250000000000004 1.6364780273437503 0.252 Q 1.69047802734375 0.2715000000000001 1.7302280273437503 0.3015 Q 1.7699780273437502 0.3315 1.7917280273437504 0.36225000000000007 Q 1.8134780273437503 0.393 1.8134780273437503 0.41400000000000003 L 1.7594780273437503 0.4335 L 1.7594780273437503 0.32400000000000007 Q 1.7594780273437503 0.28500000000000003 1.78497802734375 0.25875000000000004 Q 1.8104780273437502 0.23250000000000004 1.8494780273437503 0.23250000000000004 M 1.5464780273437502 0.9 Q 1.6124780273437502 0.9 1.6619780273437503 0.867 Q 1.7114780273437502 0.8340000000000001 1.7392280273437501 0.777 Q 1.7669780273437503 0.72 1.7669780273437503 0.6495 Q 1.7669780273437503 0.5775 1.7392280273437501 0.5205000000000001 Q 1.7114780273437502 0.4635 1.6619780273437503 0.4305 Q 1.6124780273437502 0.3975000000000001 1.5464780273437502 0.3975000000000001 Q 1.4819780273437502 0.3975000000000001 1.4324780273437503 0.4305 Q 1.3829780273437502 0.4635 1.3552280273437503 0.5205000000000001 Q 1.3274780273437503 0.5775 1.3274780273437503 0.6495 Q 1.3274780273437503 0.72 1.3552280273437503 0.777 Q 1.3829780273437502 0.8340000000000001 1.4324780273437503 0.867 Q 1.4819780273437502 0.9 1.5464780273437502 0.9 M 2.555956787109375 0.23250000000000004 Q 2.6759567871093752 0.23250000000000004 2.732956787109375 0.29025 Q 2.789956787109375 0.348 2.807956787109375 0.4395 L 2.782456787109375 0.42600000000000005 L 2.7944567871093753 0.402 Q 2.812456787109375 0.36750000000000005 2.849956787109375 0.32775 Q 2.8874567871093753 0.28800000000000003 2.940706787109375 0.26025 Q 2.993956787109375 0.23250000000000004 3.059956787109375 0.23250000000000004 Q 3.1679567871093752 0.23250000000000004 3.2242067871093747 0.279 Q 3.280456787109375 0.3255 3.301456787109375 0.40275000000000005 Q 3.322456787109375 0.48 3.322456787109375 0.5745 L 3.322456787109375 0.9585 Q 3.322456787109375 0.9975 3.296956787109375 1.02375 Q 3.2714567871093747 1.05 3.232456787109375 1.05 Q 3.1934567871093753 1.05 3.1679567871093752 1.02375 Q 3.142456787109375 0.9975 3.142456787109375 0.9585 L 3.142456787109375 0.5745 Q 3.142456787109375 0.525 3.1304567871093747 0.48525000000000007 Q 3.118456787109375 0.4455 3.086956787109375 0.4215 Q 3.055456787109375 0.3975000000000001 2.996956787109375 0.3975000000000001 Q 2.939956787109375 0.3975000000000001 2.899456787109375 0.4215 Q 2.858956787109375 0.4455 2.838706787109375 0.48525000000000007 Q 2.818456787109375 0.525 2.818456787109375 0.5745 L 2.818456787109375 0.9585 Q 2.818456787109375 0.9975 2.7929567871093752 1.02375 Q 2.767456787109375 1.05 2.728456787109375 1.05 Q 2.689456787109375 1.05 2.663956787109375 1.02375 Q 2.638456787109375 0.9975 2.638456787109375 0.9585 L 2.638456787109375 0.5745 Q 2.638456787109375 0.525 2.626456787109375 0.48525000000000007 Q 2.614456787109375 0.4455 2.5829567871093753 0.4215 Q 2.551456787109375 0.3975000000000001 2.492956787109375 0.3975000000000001 Q 2.435956787109375 0.3975000000000001 2.395456787109375 0.4215 Q 2.354956787109375 0.4455 2.334706787109375 0.48525000000000007 Q 2.314456787109375 0.525 2.314456787109375 0.5745 L 2.314456787109375 0.9585 Q 2.314456787109375 0.9975 2.288956787109375 1.02375 Q 2.263456787109375 1.05 2.224456787109375 1.05 Q 2.185456787109375 1.05 2.159956787109375 1.02375 Q 2.134456787109375 0.9975 2.134456787109375 0.9585 L 2.134456787109375 0.3390000000000001 Q 2.134456787109375 0.30000000000000004 2.159956787109375 0.27375000000000005 Q 2.185456787109375 0.24750000000000005 2.224456787109375 0.24750000000000005 Q 2.263456787109375 0.24750000000000005 2.288956787109375 0.27375000000000005 Q 2.314456787109375 0.30000000000000004 2.314456787109375 0.3390000000000001 L 2.314456787109375 0.4035000000000001 L 2.291956787109375 0.399 Q 2.305456787109375 0.37350000000000005 2.329456787109375 0.34425000000000006 Q 2.353456787109375 0.31500000000000006 2.387956787109375 0.2895 Q 2.422456787109375 0.264 2.464456787109375 0.24825000000000008 Q 2.506456787109375 0.23250000000000004 2.555956787109375 0.23250000000000004 M 3.938952392578125 0.23250000000000004 Q 4.058952392578125 0.23250000000000004 4.115952392578125 0.29025 Q 4.172952392578125 0.348 4.190952392578125 0.4395 L 4.165452392578125 0.42600000000000005 L 4.177452392578125 0.402 Q 4.195452392578125 0.36750000000000005 4.232952392578125 0.32775 Q 4.270452392578125 0.28800000000000003 4.3237023925781255 0.26025 Q 4.376952392578125 0.23250000000000004 4.442952392578125 0.23250000000000004 Q 4.550952392578125 0.23250000000000004 4.607202392578125 0.279 Q 4.663452392578125 0.3255 4.684452392578125 0.40275000000000005 Q 4.705452392578125 0.48 4.705452392578125 0.5745 L 4.705452392578125 0.9585 Q 4.705452392578125 0.9975 4.679952392578125 1.02375 Q 4.654452392578125 1.05 4.615452392578125 1.05 Q 4.576452392578125 1.05 4.550952392578125 1.02375 Q 4.525452392578125 0.9975 4.525452392578125 0.9585 L 4.525452392578125 0.5745 Q 4.525452392578125 0.525 4.513452392578125 0.48525000000000007 Q 4.501452392578125 0.4455 4.469952392578125 0.4215 Q 4.4384523925781245 0.3975000000000001 4.379952392578125 0.3975000000000001 Q 4.3229523925781255 0.3975000000000001 4.282452392578125 0.4215 Q 4.241952392578125 0.4455 4.221702392578125 0.48525000000000007 Q 4.201452392578125 0.525 4.201452392578125 0.5745 L 4.201452392578125 0.9585 Q 4.201452392578125 0.9975 4.175952392578125 1.02375 Q 4.150452392578125 1.05 4.111452392578125 1.05 Q 4.072452392578125 1.05 4.046952392578125 1.02375 Q 4.021452392578125 0.9975 4.021452392578125 0.9585 L 4.021452392578125 0.5745 Q 4.021452392578125 0.525 4.009452392578125 0.48525000000000007 Q 3.997452392578125 0.4455 3.9659523925781253 0.4215 Q 3.934452392578125 0.3975000000000001 3.875952392578125 0.3975000000000001 Q 3.818952392578125 0.3975000000000001 3.778452392578125 0.4215 Q 3.737952392578125 0.4455 3.717702392578125 0.48525000000000007 Q 3.697452392578125 0.525 3.697452392578125 0.5745 L 3.697452392578125 0.9585 Q 3.697452392578125 0.9975 3.671952392578125 1.02375 Q 3.646452392578125 1.05 3.607452392578125 1.05 Q 3.568452392578125 1.05 3.542952392578125 1.02375 Q 3.517452392578125 0.9975 3.517452392578125 0.9585 L 3.517452392578125 0.3390000000000001 Q 3.517452392578125 0.30000000000000004 3.542952392578125 0.27375000000000005 Q 3.568452392578125 0.24750000000000005 3.607452392578125 0.24750000000000005 Q 3.646452392578125 0.24750000000000005 3.671952392578125 0.27375000000000005 Q 3.697452392578125 0.30000000000000004 3.697452392578125 0.3390000000000001 L 3.697452392578125 0.4035000000000001 L 3.674952392578125 0.399 Q 3.688452392578125 0.37350000000000005 3.712452392578125 0.34425000000000006 Q 3.736452392578125 0.31500000000000006 3.770952392578125 0.2895 Q 3.805452392578125 0.264 3.847452392578125 0.24825000000000008 Q 3.889452392578125 0.23250000000000004 3.938952392578125 0.23250000000000004 M 5.488440673828125 0.24750000000000005 Q 5.527440673828125 0.24750000000000005 5.552940673828125 0.27375000000000005 Q 5.578440673828125 0.30000000000000004 5.578440673828125 0.3390000000000001 L 5.578440673828125 0.9765 Q 5.578440673828125 1.1145 5.526690673828125 1.19625 Q 5.474940673828125 1.278 5.387940673828125 1.314 Q 5.300940673828125 1.35 5.192940673828125 1.35 Q 5.144940673828125 1.35 5.090940673828125 1.3425 Q 5.036940673828125 1.335 5.002440673828125 1.32 Q 4.957440673828125 1.3005 4.940190673828125 1.27125 Q 4.922940673828125 1.242 4.933440673828125 1.209 Q 4.946940673828125 1.1655 4.976940673828125 1.14975 Q 5.006940673828125 1.1340000000000001 5.039940673828125 1.1460000000000001 Q 5.063940673828125 1.1535 5.102940673828125 1.1692500000000001 Q 5.141940673828125 1.185 5.192940673828125 1.185 Q 5.261940673828125 1.185 5.307690673828125 1.16625 Q 5.353440673828125 1.1475 5.376690673828125 1.10325 Q 5.399940673828125 1.059 5.399940673828125 0.9825 L 5.399940673828125 0.882 L 5.431440673828125 0.918 Q 5.405940673828125 0.9675 5.367690673828125 0.99975 Q 5.329440673828125 1.032 5.276940673828125 1.0485 Q 5.224440673828125 1.065 5.156940673828125 1.065 Q 5.077440673828125 1.065 5.018190673828125 1.02825 Q 4.958940673828125 0.9915 4.925940673828125 0.92625 Q 4.892940673828125 0.861 4.892940673828125 0.777 L 4.892940673828125 0.3390000000000001 Q 4.892940673828125 0.30000000000000004 4.918440673828125 0.27375000000000005 Q 4.943940673828125 0.24750000000000005 4.982940673828125 0.24750000000000005 Q 5.021940673828125 0.24750000000000005 5.047440673828125 0.27375000000000005 Q 5.072940673828125 0.30000000000000004 5.072940673828125 0.3390000000000001 L 5.072940673828125 0.7230000000000001 Q 5.072940673828125 0.8205 5.115690673828125 0.8602500000000001 Q 5.1584406738281245 0.9 5.234940673828125 0.9 Q 5.287440673828125 0.9 5.3234406738281255 0.87975 Q 5.359440673828125 0.8595 5.378940673828125 0.81975 Q 5.398440673828125 0.78 5.398440673828125 0.7230000000000001 L 5.398440673828125 0.3390000000000001 Q 5.398440673828125 0.30000000000000004 5.423940673828125 0.27375000000000005 Q 5.449440673828125 0.24750000000000005 5.488440673828125 0.24750000000000005 M 5.7509033203125 0.07200000000000006 Q 5.7584033203125 0 5.8289033203125 0 L 5.8754033203125005 0 Q 5.9174033203125 0 5.9339033203125 0.023249999999999993 Q 5.9504033203125 0.046499999999999986 5.9369033203125 0.08550000000000002 L 5.8349033203125 0.399 Q 5.8169033203125 0.4485 5.7704033203125 0.4485 Q 5.7224033203125 0.4485 5.7269033203125 0.387 L 5.7509033203125 0.07200000000000006 M 6.044865966796875 0.9255 Q 6.029865966796875 0.9045000000000001 6.031365966796875 0.8715 Q 6.032865966796875 0.8385 6.070365966796875 0.8145 Q 6.094365966796875 0.7995000000000001 6.121365966796875 0.8017500000000001 Q 6.148365966796875 0.804 6.173865966796875 0.8295 Q 6.217365966796875 0.873 6.265365966796875 0.897 Q 6.313365966796875 0.921 6.385365966796875 0.921 Q 6.407865966796875 0.9195 6.434865966796875 0.91425 Q 6.461865966796875 0.909 6.482115966796875 0.89025 Q 6.502365966796875 0.8715 6.502365966796875 0.8325 Q 6.502365966796875 0.7995000000000001 6.479865966796875 0.78 Q 6.457365966796875 0.7605000000000001 6.420615966796875 0.7470000000000001 Q 6.383865966796875 0.7335 6.338865966796875 0.7215 Q 6.292365966796875 0.708 6.243615966796875 0.6915 Q 6.194865966796875 0.675 6.154365966796875 0.64875 Q 6.113865966796875 0.6225 6.088365966796875 0.579 Q 6.062865966796875 0.5355000000000001 6.062865966796875 0.46950000000000003 Q 6.062865966796875 0.3945000000000001 6.104865966796875 0.3420000000000001 Q 6.146865966796875 0.2895 6.213615966796875 0.261 Q 6.280365966796875 0.23250000000000004 6.353865966796875 0.23250000000000004 Q 6.400365966796875 0.23250000000000004 6.451365966796875 0.24375000000000002 Q 6.502365966796875 0.255 6.548865966796875 0.27975000000000005 Q 6.595365966796875 0.3045 6.626865966796875 0.3450000000000001 Q 6.643365966796875 0.36750000000000005 6.646365966796875 0.399 Q 6.649365966796875 0.4305 6.617865966796875 0.45600000000000007 Q 6.595365966796875 0.474 6.565365966796875 0.47175 Q 6.535365966796875 0.46950000000000003 6.515865966796875 0.4515 Q 6.490365966796875 0.4185 6.447615966796875 0.399 Q 6.404865966796875 0.37950000000000006 6.349365966796875 0.37950000000000006 Q 6.326865966796875 0.37950000000000006 6.300615966796875 0.38475000000000004 Q 6.274365966796875 0.39 6.254865966796875 0.40725 Q 6.235365966796875 0.4245 6.235365966796875 0.4620000000000001 Q 6.235365966796875 0.49650000000000005 6.257865966796875 0.51675 Q 6.280365966796875 0.537 6.318615966796875 0.5497500000000001 Q 6.3568659667968745 0.5625 6.400365966796875 0.5745 Q 6.445365966796875 0.5865 6.491865966796875 0.603 Q 6.538365966796875 0.6195 6.577365966796875 0.6465000000000001 Q 6.6163659667968755 0.6735 6.640365966796875 0.71625 Q 6.664365966796875 0.7590000000000001 6.664365966796875 0.8250000000000001 Q 6.664365966796875 0.9015000000000001 6.619365966796875 0.9555 Q 6.574365966796875 1.0095 6.506865966796875 1.03725 Q 6.439365966796875 1.065 6.368865966796875 1.065 Q 6.280365966796875 1.065 6.191865966796875 1.0342500000000001 Q 6.103365966796875 1.0035 6.044865966796875 0.9255" fill="#390c14" fill-rule="nonzero"></path></g><g></g><g clip-path="url(#SvgjsClipPath1001)"><g clip-path="url(#SvgjsClipPath10008025435d-3189-4aa9-9098-9faf05dd1bb0)"><path d=" M -0.9216452702077523 0.9794855822218127 C -0.6518391940159808 0.9794855822218127 -0.4331200724141532 0.7592357241060808 -0.4331200724141532 0.48747493042353224 C -0.4331200724141532 0.21571413674098355 -0.6518391940159808 -0.004541227621201183 -0.9216452702077523 -0.004541227621201183 C -1.191451346399524 -0.004541227621201183 -1.4101704680013514 0.215741667973248 -1.4101704680013514 0.48747493042353224 C -1.4101704680013514 0.7592081928738164 -1.191445840153071 0.9794855822218127 -0.9216452702077523 0.9794855822218127 Z M -0.9216452702077523 0.9961640027276266 C -0.642693318657725 0.9961640027276266 -0.416562789330303 0.768414636943054 -0.416562789330303 0.48747493042353224 C -0.416562789330303 0.2065352239040104 -0.642693318657725 -0.02121964812701499 -0.9216452702077523 -0.02121964812701499 C -1.2005972217577796 -0.02121964812701499 -1.4267277510852017 0.20652971765755754 -1.4267277510852017 0.48747493042353224 C -1.4267277510852017 0.7684201431895068 -1.2006082342506854 0.9961640027276266 -0.9216452702077523 0.9961640027276266 Z" fill="url(#gradient-4d5fb933-7426-4fe6-be4e-0911fb9b230a_0)" transform="matrix(1,0,0,1,0,0)" fill-rule="evenodd"></path></g><g clip-path="url(#SvgjsClipPath10008025435d-3189-4aa9-9098-9faf05dd1bb0)"><path d=" M -0.9961668097012103 0.9961640027276266 C -0.7263607335094389 0.9961640027276266 -0.5076416119076111 0.7759141446118947 -0.5076416119076111 0.504153350929346 C -0.5076416119076111 0.2323925572467973 -0.7263607335094386 0.012137192884612624 -0.9961668097012103 0.012137192884612624 C -1.265972885892982 0.012137192884612624 -1.4846865012483565 0.23242008847906181 -1.4846865012483565 0.504153350929346 C -1.4846865012483565 0.7758866133796303 -1.265967379646529 0.9961640027276266 -0.9961668097012103 0.9961640027276266 Z M -0.9961668097012103 1.0128424232334403 C -0.717214858151183 1.0128424232334403 -0.49107882257730817 0.7850930574488677 -0.49107882257730817 0.504153350929346 C -0.49107882257730817 0.22321364440982422 -0.717214858151183 -0.004541227621201183 -0.9961668097012103 -0.004541227621201183 C -1.2751187612512376 -0.004541227621201183 -1.5012492905786594 0.22320813816337134 -1.5012492905786594 0.504153350929346 C -1.5012492905786594 0.7850985636953207 -1.2751132550047846 1.0128534357263461 -0.9961668097012103 1.0128534357263461 Z" fill="url(#gradient-4d5fb933-7426-4fe6-be4e-0911fb9b230a_1)" transform="matrix(1,0,0,1,0,0)" fill-rule="evenodd"></path></g><g clip-path="url(#SvgjsClipPath10008025435d-3189-4aa9-9098-9faf05dd1bb0)"><path d=" M -0.9050824808774494 1.0545412276212012 C -0.6352764046856777 1.0545412276212012 -0.416562789330303 0.834258332026752 -0.416562789330303 0.5625250695764679 C -0.416562789330303 0.2907918071261838 -0.6352819109321306 0.07051441777818734 -0.9050824808774494 0.07051441777818734 C -1.1748830508227681 0.07051441777818734 -1.3936076786710485 0.2907973133726365 -1.3936076786710485 0.5625250695764679 C -1.3936076786710485 0.834252825780299 -1.174888557069221 1.0545412276212012 -0.9050824808774494 1.0545412276212012 Z M -0.9050824808774494 1.071219648127015 C -0.626136035573875 1.071219648127015 -0.40000000000000013 0.8434702823424425 -0.40000000000000013 0.5625250695764679 C -0.40000000000000013 0.2815798568104931 -0.6261360355738749 0.053830491025920635 -0.9050824808774494 0.053830491025920635 C -1.1840289261810237 0.053830491025920635 -1.4101704680013514 0.28158536305694604 -1.4101704680013514 0.5625250695764679 C -1.4101704680013514 0.8434647760959897 -1.1840344324274767 1.071219648127015 -0.9050824808774494 1.071219648127015 Z" fill="url(#gradient-4d5fb933-7426-4fe6-be4e-0911fb9b230a_2)" transform="matrix(1,0,0,1,0,0)" fill-rule="evenodd"></path></g><path d=" M -1.1535150879521199 0.2604235841868193 L -0.778668171463019 0.6592898176548333 L -0.778668171463019 0.4030837698797586 C -0.778668171463019 0.38246112398877247 -0.7789107908264424 0.3644466362545875 -0.7793960295532891 0.34904030667720376 C -0.7798812682801359 0.33363397709982007 -0.780609126370406 0.3202899121115349 -0.7815796038240994 0.3090081117123483 C -0.7825500812777929 0.2977263113131618 -0.783702523254054 0.2883248109805064 -0.7850369297528825 0.2808036107143821 C -0.786371336251711 0.27328241044825774 -0.7877663975913953 0.2669743069992502 -0.7892221137719355 0.26187930036735946 L -0.7892221137719355 0.2604235841868193 L -0.7244427437378967 0.2604235841868193 L -0.7244427437378967 0.26187930036735946 C -0.7258984599184369 0.2669743069992502 -0.7272328664172654 0.27328241044825774 -0.7284459632343823 0.2808036107143821 C -0.729659060051499 0.2883248109805064 -0.7307508471869042 0.2977263113131618 -0.7317213246405978 0.3090081117123483 C -0.7326918020942912 0.3202899121115349 -0.7334196601845613 0.33363397709982007 -0.733904898911408 0.34904030667720376 C -0.7343901376382548 0.3644466362545875 -0.7346327570016782 0.38246112398877247 -0.7346327570016782 0.4030837698797586 L -0.7346327570016782 0.789576415813181 L -0.7473702735814048 0.789576415813181 L -1.1222171900705056 0.39107411139030196 L -1.1222171900705056 0.6400015782626757 C -1.1222171900705056 0.6606242241536618 -1.1219745707070823 0.6786387118878467 -1.1214893319802355 0.6940450414652305 C -1.1210040932533887 0.7094513710426142 -1.1202762351631186 0.7227347811900436 -1.1193057577094252 0.7338952719075185 C -1.1183352802557318 0.7450557626249933 -1.1172434931203266 0.7543966081167928 -1.1160303963032097 0.7619178083829172 C -1.114817299486093 0.7694390086490415 -1.1134828929872644 0.775747112098049 -1.1120271768067242 0.7808421187299397 L -1.1120271768067242 0.7822978349104799 L -1.176806546840763 0.7822978349104799 L -1.176806546840763 0.7808421187299397 C -1.1753508306602227 0.775747112098049 -1.1739557693205385 0.7694390086490415 -1.17262136282171 0.7619178083829172 C -1.1712869563228814 0.7543966081167928 -1.1701345143466204 0.7450557626249933 -1.169164036892927 0.7338952719075185 C -1.1681935594392334 0.7227347811900436 -1.1674657013489633 0.7094513710426142 -1.1669804626221167 0.6940450414652305 C -1.16649522389527 0.6786387118878467 -1.1662526045318466 0.6606242241536618 -1.1662526045318466 0.6400015782626757 L -1.1662526045318466 0.4030837698797586 C -1.1662526045318466 0.38246112398877247 -1.16649522389527 0.3644466362545875 -1.1669804626221167 0.34904030667720376 C -1.1674657013489633 0.33363397709982007 -1.1681935594392334 0.3202899121115349 -1.169164036892927 0.3090081117123483 C -1.1701345143466204 0.2977263113131618 -1.1712869563228814 0.2883248109805064 -1.17262136282171 0.2808036107143821 C -1.1739557693205385 0.27328241044825774 -1.1753508306602227 0.2669743069992502 -1.176806546840763 0.26187930036735946 L -1.176806546840763 0.2604235841868193 L -1.1535150879521199 0.2604235841868193" fill="url(#gradient-055c1e2e-8127-4437-8c5d-50c54f563a6d)" transform="matrix(1,0,0,1,0,0)" fill-rule="nonzero"></path></g></g><defs><clipPath id="SvgjsClipPath1001"><path d=" M -1.5012492905786594 -0.025624645289329617 h 1.1012492905786593 v 1.1012492905786593 h -1.1012492905786593 Z"></path></clipPath><clipPath id="SvgjsClipPath10008025435d-3189-4aa9-9098-9faf05dd1bb0"><path d=" M -1.5012492905786594 -0.02121964812701499 L -0.40000000000000013 -0.02121964812701499 L -0.40000000000000013 1.071219648127015 L -1.5012492905786594 1.071219648127015 Z"></path></clipPath><linearGradient id="gradient-4d5fb933-7426-4fe6-be4e-0911fb9b230a_0" x1="0" x2="1" y1="0" y2="1"><stop stop-color="#a1477a" offset="0"></stop><stop stop-color="#3d0e18" offset="1"></stop></linearGradient><linearGradient id="gradient-4d5fb933-7426-4fe6-be4e-0911fb9b230a_1" x1="0" x2="1" y1="0" y2="1"><stop stop-color="#a4497d" offset="0"></stop><stop stop-color="#40101b" offset="1"></stop></linearGradient><linearGradient id="gradient-4d5fb933-7426-4fe6-be4e-0911fb9b230a_2" x1="0" x2="1" y1="0" y2="1"><stop stop-color="#9d4476" offset="0"></stop><stop stop-color="#390c14" offset="1"></stop></linearGradient><linearGradient id="gradient-055c1e2e-8127-4437-8c5d-50c54f563a6d" x1="0" x2="1" y1="0" y2="1"><stop stop-color="#a5497e" offset="0"></stop><stop stop-color="#390c14" offset="1"></stop></linearGradient></defs></svg>